<mxfile host="app.diagrams.net" modified="2022-06-27T10:43:01.417Z" agent="5.0 (Windows NT 10.0; Win64; x64) AppleWebKit/537.36 (KHTML, like Gecko) Chrome/102.0.0.0 Safari/537.36" etag="o-E8CBqg5uClP0Ber08w" version="20.0.1" type="github">
  <diagram id="_1_elZYSAHYm358-CXUI" name="Page-1">
    <mxGraphModel dx="3685" dy="-1331" grid="1" gridSize="10" guides="1" tooltips="1" connect="1" arrows="1" fold="1" page="1" pageScale="1" pageWidth="827" pageHeight="1169" math="0" shadow="0">
      <root>
        <mxCell id="0" />
        <mxCell id="1" parent="0" />
        <mxCell id="0dZC8Tv51BrnFE1N7XIH-5" style="edgeStyle=orthogonalEdgeStyle;rounded=0;orthogonalLoop=1;jettySize=auto;html=1;exitX=0.25;exitY=1;exitDx=0;exitDy=0;" edge="1" parent="1" source="Dezm08wWaW3rp9LncF0e-19" target="0dZC8Tv51BrnFE1N7XIH-3">
          <mxGeometry relative="1" as="geometry" />
        </mxCell>
        <mxCell id="Dezm08wWaW3rp9LncF0e-19" value="Processing&lt;br&gt;(Azure)" style="rounded=1;whiteSpace=wrap;html=1;verticalAlign=top;fontSize=12;" parent="1" vertex="1">
          <mxGeometry x="-1251.63" y="2610" width="140" height="70" as="geometry" />
        </mxCell>
        <mxCell id="Dezm08wWaW3rp9LncF0e-20" value="" style="aspect=fixed;html=1;points=[];align=center;image;fontSize=12;image=img/lib/azure2/compute/Kubernetes_Services.svg;" parent="1" vertex="1">
          <mxGeometry x="-1196.63" y="2650" width="30" height="26.47" as="geometry" />
        </mxCell>
        <mxCell id="0dZC8Tv51BrnFE1N7XIH-11" value="" style="edgeStyle=orthogonalEdgeStyle;rounded=0;orthogonalLoop=1;jettySize=auto;html=1;" edge="1" parent="1" source="0dZC8Tv51BrnFE1N7XIH-3" target="0dZC8Tv51BrnFE1N7XIH-10">
          <mxGeometry relative="1" as="geometry" />
        </mxCell>
        <mxCell id="0dZC8Tv51BrnFE1N7XIH-3" value="Cross Border Sender&lt;br&gt;(Azure)" style="rounded=1;whiteSpace=wrap;html=1;verticalAlign=top;fontSize=12;" vertex="1" parent="1">
          <mxGeometry x="-1340" y="2760" width="140" height="70" as="geometry" />
        </mxCell>
        <mxCell id="0dZC8Tv51BrnFE1N7XIH-4" value="" style="aspect=fixed;html=1;points=[];align=center;image;fontSize=12;image=img/lib/azure2/compute/Function_Apps.svg;" vertex="1" parent="1">
          <mxGeometry x="-1285" y="2799" width="30" height="26.47" as="geometry" />
        </mxCell>
        <mxCell id="0dZC8Tv51BrnFE1N7XIH-7" value="" style="endArrow=classic;html=1;rounded=0;entryX=0;entryY=0.5;entryDx=0;entryDy=0;dashed=1;" edge="1" parent="1" target="Dezm08wWaW3rp9LncF0e-19">
          <mxGeometry width="50" height="50" relative="1" as="geometry">
            <mxPoint x="-1340" y="2645" as="sourcePoint" />
            <mxPoint x="-1410" y="2730" as="targetPoint" />
          </mxGeometry>
        </mxCell>
        <mxCell id="0dZC8Tv51BrnFE1N7XIH-8" value="" style="endArrow=classic;html=1;rounded=0;entryX=0;entryY=0.5;entryDx=0;entryDy=0;dashed=1;" edge="1" parent="1">
          <mxGeometry width="50" height="50" relative="1" as="geometry">
            <mxPoint x="-1111.63" y="2644.29" as="sourcePoint" />
            <mxPoint x="-1023.2600000000002" y="2644.29" as="targetPoint" />
          </mxGeometry>
        </mxCell>
        <mxCell id="0dZC8Tv51BrnFE1N7XIH-9" value="&lt;b&gt;.NET Service Bus trigger&lt;/b&gt;&lt;br&gt;&lt;br&gt;Convert payment request from JSON to XML and insert into SQL Server messages table" style="text;html=1;strokeColor=none;fillColor=none;align=left;verticalAlign=middle;whiteSpace=wrap;rounded=0;" vertex="1" parent="1">
          <mxGeometry x="-1500" y="2760" width="150" height="70" as="geometry" />
        </mxCell>
        <mxCell id="0dZC8Tv51BrnFE1N7XIH-10" value="Cross Border Database&lt;br&gt;(Daisy)" style="rounded=1;whiteSpace=wrap;html=1;verticalAlign=top;fontSize=12;" vertex="1" parent="1">
          <mxGeometry x="-1340" y="2910" width="140" height="70" as="geometry" />
        </mxCell>
        <mxCell id="0dZC8Tv51BrnFE1N7XIH-12" value="" style="sketch=0;outlineConnect=0;fontColor=#232F3E;gradientColor=none;fillColor=#2E27AD;strokeColor=none;dashed=0;verticalLabelPosition=bottom;verticalAlign=top;align=center;html=1;fontSize=12;fontStyle=0;aspect=fixed;pointerEvents=1;shape=mxgraph.aws4.rds_sql_server_instance;" vertex="1" parent="1">
          <mxGeometry x="-1285" y="2948" width="30" height="30" as="geometry" />
        </mxCell>
        <mxCell id="0dZC8Tv51BrnFE1N7XIH-15" style="edgeStyle=orthogonalEdgeStyle;rounded=0;orthogonalLoop=1;jettySize=auto;html=1;entryX=0;entryY=0.5;entryDx=0;entryDy=0;fontSize=10;" edge="1" parent="1" source="0dZC8Tv51BrnFE1N7XIH-13" target="0dZC8Tv51BrnFE1N7XIH-10">
          <mxGeometry relative="1" as="geometry" />
        </mxCell>
        <mxCell id="0dZC8Tv51BrnFE1N7XIH-13" value="&lt;font style=&quot;font-size: 10px;&quot;&gt;Cross Border Payment Engine&lt;/font&gt;&lt;br&gt;(Azure)" style="rounded=1;whiteSpace=wrap;html=1;verticalAlign=top;fontSize=12;" vertex="1" parent="1">
          <mxGeometry x="-1570" y="2910" width="140" height="70" as="geometry" />
        </mxCell>
        <mxCell id="0dZC8Tv51BrnFE1N7XIH-14" value="" style="shape=image;verticalLabelPosition=bottom;labelBackgroundColor=default;verticalAlign=top;aspect=fixed;imageAspect=0;image=https://upload.wikimedia.org/wikipedia/commons/thumb/a/a3/.NET_Logo.svg/2048px-.NET_Logo.svg.png;" vertex="1" parent="1">
          <mxGeometry x="-1515" y="2948" width="30" height="30" as="geometry" />
        </mxCell>
        <mxCell id="0dZC8Tv51BrnFE1N7XIH-18" style="edgeStyle=orthogonalEdgeStyle;rounded=0;orthogonalLoop=1;jettySize=auto;html=1;entryX=0.75;entryY=1;entryDx=0;entryDy=0;fontSize=10;" edge="1" parent="1" source="0dZC8Tv51BrnFE1N7XIH-16" target="Dezm08wWaW3rp9LncF0e-19">
          <mxGeometry relative="1" as="geometry" />
        </mxCell>
        <mxCell id="0dZC8Tv51BrnFE1N7XIH-19" style="edgeStyle=orthogonalEdgeStyle;rounded=0;orthogonalLoop=1;jettySize=auto;html=1;entryX=1;entryY=0.5;entryDx=0;entryDy=0;fontSize=10;exitX=0.5;exitY=1;exitDx=0;exitDy=0;" edge="1" parent="1" source="0dZC8Tv51BrnFE1N7XIH-16" target="0dZC8Tv51BrnFE1N7XIH-10">
          <mxGeometry relative="1" as="geometry" />
        </mxCell>
        <mxCell id="0dZC8Tv51BrnFE1N7XIH-16" value="Cross Border Sender&lt;br&gt;(Azure)" style="rounded=1;whiteSpace=wrap;html=1;verticalAlign=top;fontSize=12;" vertex="1" parent="1">
          <mxGeometry x="-1160" y="2760" width="140" height="70" as="geometry" />
        </mxCell>
        <mxCell id="0dZC8Tv51BrnFE1N7XIH-17" value="" style="aspect=fixed;html=1;points=[];align=center;image;fontSize=12;image=img/lib/azure2/compute/Function_Apps.svg;" vertex="1" parent="1">
          <mxGeometry x="-1105" y="2797" width="30" height="26.47" as="geometry" />
        </mxCell>
        <mxCell id="0dZC8Tv51BrnFE1N7XIH-20" value="&lt;b&gt;.NET Cron trigger&lt;/b&gt;&lt;br&gt;&lt;br&gt;Query messages table for newly completed payment requests.&amp;nbsp; Convert payment requests from XML to JSON." style="text;html=1;strokeColor=none;fillColor=none;align=left;verticalAlign=middle;whiteSpace=wrap;rounded=0;" vertex="1" parent="1">
          <mxGeometry x="-1000" y="2760" width="150" height="70" as="geometry" />
        </mxCell>
      </root>
    </mxGraphModel>
  </diagram>
</mxfile>
